<svg version="1.1" xmlns="http://www.w3.org/2000/svg"
xmlns:xlink="http://www.w3.org/1999/xlink">
<symbol  viewbox="0 0 18 18" id="search_icon">
    <path fill-rule="evenodd" d="M17.317 14.983a1.65 1.65 0 0 1-2.334 2.333l-4.836-4.835A6.56 6.56 0
    0 1 6.8 13.4a6.6 6.6 0 1 1 6.6-6.6 6.56 6.56 0 0 1-.919 3.347l4.836 4.836zM6.8 1.849a4.95 4.95 0 1 0 .001 9.901A4.95
    4.95 0 0 0 6.8 1.85z"/>
</symbol>
<symbol viewbox="0 0 18 15" id="buy_icon">
    <path fill-rule="evenodd"  d="M17.726 3.663h.001l-2.475 5.5a.826.826 0 0 1-.697.485l-7.128.475.412
    1.176H15.6a1.65 1.65 0 1 1-1.65 1.651h-7.7a1.65 1.65 0 1 1-1.65-1.651h1.491L2.915 2.225h-1.89a.825.825 0 0 1
    0-1.65H3.5c.36 0 .663.232.776.553l.003-.001.48 1.373h12.216a.825.825 0 0 1 .751 1.163zM5.337 4.15l1.525 4.357
    7.089-.473 1.748-3.884H5.337z"/>
</symbol>
<symbol viewbox="0 0 32 31" id="alarm_icon">
<path fill-rule="evenodd" fill="#95E1D3" d="M30.74 9.503a15.723 15.723 0 0 0-8.243-8.243c1-.787 2.258-1.26 
    3.629-1.26A5.874 5.874 0 0 1 32 5.874a5.846 5.846 0 0 1-1.26 3.629zM30.5 16c0 3.852-1.512 7.343-3.963 9.94l2.029 
    2.028a1.483 1.483 0 1 1-2.098 2.097l-2.178-2.178A14.426 14.426 0 0 1 16 30.5c-3.079 0-5.928-.966-8.276-2.603L5.561 
    30.06a1.5 1.5 0 0 1-2.122-2.121l2.012-2.012C3.008 23.332 1.5 19.845 1.5 16 1.5 7.992 7.992 1.5 16 1.5S30.5 7.992 30.5 
    16zM16 4.5C9.649 4.5 4.5 9.648 4.5 16c0 6.351 5.149 11.5 11.5 11.5S27.5 22.351 27.5 16c0-6.352-5.149-11.5-11.5-11.5zm6 
    13h-6a1.5 1.5 0 0 1-1.5-1.5V8a1.5 1.5 0 0 1 3 0v6.499H22a1.5 1.5 0 0 1 0 3.001zM1.287 9.705A5.964 5.964 0 0 1 0 6a6 6 
    0 0 1 6-6c1.4 0 2.685.483 3.706 1.287a16.057 16.057 0 0 0-8.419 8.418z"/>
<symbol viewbox="0 0 32 32" id="line_graph_icon">
<path fill-rule="evenodd"  fill="#95E1D3" d="M30.500,32.000 L1.500,32.000 C0.672,32.000 0.000,31.328 0.000,30.500 
    L0.000,1.499 C0.000,0.672 0.672,-0.000 1.500,-0.000 L30.500,-0.000 C31.328,-0.000 32.000,0.672 32.000,1.499 L32.000,30.500 
    C32.000,31.328 31.328,32.000 30.500,32.000 ZM29.000,3.000 L3.000,3.000 L3.000,29.000 L29.000,29.000 L29.000,3.000 
    ZM5.215,16.239 L5.215,16.237 L9.215,13.737 L9.215,13.739 C9.444,13.598 9.712,13.517 10.000,13.517 C10.311,13.517 
    10.600,13.612 10.840,13.774 L10.846,13.766 L17.477,18.186 L25.115,12.795 C25.363,12.613 25.669,12.505 26.000,12.505 
    C26.828,12.505 27.500,13.177 27.500,14.005 C27.500,14.505 27.255,14.948 26.878,15.221 L26.879,15.221 L18.379,21.221 
    L18.378,21.221 C18.132,21.400 17.828,21.505 17.500,21.505 C17.179,21.505 16.882,21.404 16.639,21.233 L9.982,16.795 
    L6.847,18.755 C6.606,18.920 6.314,19.017 6.000,19.017 C5.172,19.017 4.500,18.345 4.500,17.517 C4.500,16.976 4.786,16.503 
    5.215,16.239 Z"/>
</symbol>
<symbol viewbox="0 0 32 32" id="computer_icon">
    <path fill-rule="evenodd" fill="#95E1D3" d="M30 23h-9.5v2.499l2 2.001v.5h-13v-.5l2-2.001V23H2a1.5 1.5 0 0 1-1.5-1.501V1.5A1.5 
    1.5 0 0 1 2 0h28a1.5 1.5 0 0 1 1.5 1.5v19.999A1.5 1.5 0 0 1 30 23zm-.5-21h-27v17h27V2zM13 9c.414 0 .789.168 1.061.439l.939.939 
    2.939-2.939a1.5 1.5 0 1 1 2.122 2.122l-4 4a1.499 1.499 0 0 1-2.122 0l-2-2.001A1.5 1.5 0 0 1 13 9z"/>
</symbol>
<symbol viewbox="0 0 32 32" id="book_icon">
    <path fill-rule="evenodd" fill="#95E1D3" d="M31.065 25.889l-14.471 5.988a1.489 1.489 0 0 1-1.188 0L.935 25.889A1.5 1.5 0 0 1 0 
    24.5v-23A1.5 1.5 0 0 1 2.073.114h.001l.002.001.013.005L16 5.876 29.911.12l.013-.005.003-.001A1.5 1.5 0 0 1 32 1.5v23a1.5 1.5 0 
    0 1-.935 1.389zM14.5 8.503L3 3.744v19.753l11.5 4.759V8.503zM29 3.744L17.5 8.503v19.753L29 23.497V3.744zm-9.121 6.89l5.5-2.5a1.5 
    1.5 0 0 1 1.242 2.731l-5.5 2.5a1.5 1.5 0 0 1-1.242-2.731zm0 5.5l5.5-2.5a1.5 1.5 0 0 1 1.242 2.731l-5.5 2.5a1.5 1.5 0 0 
    1-1.242-2.731zm0 5.5l5.5-2.5a1.5 1.5 0 0 1 1.242 2.731l-5.5 2.5a1.5 1.5 0 0 1-1.242-2.731zM6 8c.221 0 .431.048.621.134l5.5 
    2.5a1.501 1.501 0 0 1-1.242 2.731l-5.5-2.5A1.5 1.5 0 0 1 6 8zm0 5.5c.221 0 .431.048.621.134l5.5 2.5a1.501 1.501 0 0 1-1.242 
    2.731l-5.5-2.5A1.5 1.5 0 0 1 6 13.5zM6 19c.221 0 .431.048.621.134l5.5 2.5a1.501 1.501 0 0 1-1.242 2.731l-5.5-2.5A1.5 1.5 0 0 1 
    6 19z"/>
</symbol>
<symbol viewbox="0 0 32 32" id="house_icon">
    <path fill-rule="evenodd" fill="#95E1D3" d="M32 16.5a1.5 1.5 0 0 1-1.5 1.499 1.49 1.49 0 0 1-1.02-.405l-.003.004L16.038 
    4.159 16 4.122 2.554 17.568h-.001a1.5 1.5 0 1 1-2.092-2.149L14.919.96C15.192.677 15.575.5 16 .5h.001c.026 0 .052 0 
    .079.002l.012.001.068.005.004.001c.367.04.694.212.933.468l.001-.001L23 6.878V5.5a1.5 1.5 0 1 1 3 0v4.378l5.598 
    5.598-.004.004c.25.268.406.625.406 1.02zM29 19v10.5a1.5 1.5 0 0 1-1.5 1.5h-3V19h-6v12h-14A1.5 1.5 0 0 1 3 29.5V19L16 6l13 
    13zm-15.5 0h-6v6h6v-6z"/>
</symbol>
<symbol viewbox="0 0 32 32" id="image_icon">
    <path fill-rule="evenodd" fill="#95E1D3" d="M30.5 32h-29A1.5 1.5 0 0 1 0 30.5v-29A1.5 1.5 0 0 1 1.5 0h29A1.5 1.5 0 0 1 32 
    1.5v29a1.5 1.5 0 0 1-1.5 1.5zM29 3H3v26h26V3zM6.5 4.5H12a1.5 1.5 0 1 1 0 3H7.5V12a1.5 1.5 0 0 1-3 0V4.5h2zM4.5 20a1.5 1.5 0 
    1 1 3 0v4.499H12v.001a1.5 1.5 0 1 1 0 3H4.5V20zM20 4.5h7.5V12a1.5 1.5 0 0 1-3 0V7.5H20a1.5 1.5 0 0 1 0-3zm0 20v-.001h4.5V20a1.5 
    1.5 0 1 1 3 0v7.5H20a1.5 1.5 0 0 1 0-3z"/>
</symbol>
<symbol viewbox="0 10 22 26" id="facebook_icon">
    <path fill-rule="evenodd" d="M12.089,0.199 C12.089,1.675 12.089,4.320 12.089,4.320 C12.089,4.320 9.052,4.017 
    8.291,5.181 C7.875,5.817 8.122,7.680 8.085,9.019 C9.411,9.019 10.788,9.019 12.114,9.019 C11.774,10.583 11.530,11.643 11.279,12.997 
    C10.132,12.997 8.063,12.997 8.063,12.997 L8.063,25.801 C8.063,25.801 4.266,25.801 2.481,25.801 C2.482,21.854 2.480,17.249 2.481,13.047 
    C1.614,13.047 0.973,13.047 0.106,13.047 C0.106,11.571 0.106,10.496 0.106,9.019 C0.947,9.019 1.613,9.019 2.455,9.019 C2.575,6.073 
    2.620,3.155 4.084,1.669 C5.728,-0.002 7.297,0.199 12.089,0.199 Z"></path>
</symbol>
<symbol viewbox="0 0 26 22" id="twitter_icon"> 
    <path fill-rule="evenodd" d="M17.513.601c2.034-.036 3.117.705 4.151 1.647.878-.075 2.019-.565 2.691-.907l.653-.357c-.384 
    1.037-.904 1.849-1.704 2.465-.178.137-.354.322-.577.409v.013c1.14-.011 2.08-.526 2.973-.805v.013c-.469.745-1.104 1.502-1.781 
    2.044l-.82.651c.015 1.207-.018 2.359-.243 3.373-1.312 5.895-4.788 9.897-10.289 11.612-1.976.615-5.168.868-7.432.306-1.122-.278-2.136-.593-3.087-1.009a12.156 
    12.156 0 0 1-1.487-.767l-.461-.28c.51.015 1.108.156 1.678.063.517-.083 1.023-.061 1.5-.165 1.188-.261 2.243-.606 3.151-1.138.441-.258 1.11-.56 
    1.423-.932-.59.01-1.125-.127-1.563-.281-1.699-.6-2.688-1.703-3.332-3.36.515.057 1.998.191 2.345-.102-.648-.036-1.271-.411-1.717-.69-1.367-.855-2.481-2.289-2.473-4.496l.538.255c.344.145.693.222 
    1.102.307.173.036.519.137.718.063h-.026c-.264-.307-.695-.513-.961-.843C1.606 6.601.785 4.924 1.304 2.926c.132-.507.341-.954.564-1.367l.026.012c.102.214.33.371.474.55.448.555 
    1 1.054 1.563 1.494 1.918 1.5 3.645 2.422 6.419 3.104a9.983 9.983 0 0 0 2.358.307c-.236-.687-.16-1.8.025-2.465.468-1.674 1.483-2.879 2.973-3.526a6.406 6.406 
    0 0 1 1.166-.358l.641-.076z"></path>
</symbol>
<symbol viewbox="0 0 21 26" id="pinterest_icon">
    <path fill-rule="evenodd" d="M9.051 16.854c-.209.833-.42 1.706-.638 2.56-.215.842-.405 1.696-.718 2.47-.519 1.281-1.178 2.519-2.043 
    3.521-.575.667-.453.401-.626.365-.132-.028-.143-.157-.169-.345-.141-1.018-.045-2.195.007-3.339.06-1.304.334-2.388.589-3.471.484-2.064.946-4.087 
    1.435-6.164.032-.138.12-.366.09-.445-.222-.577-.366-1.095-.429-1.701a5.415 5.415 0 0 1 .139-1.943c.277-1.058.913-1.995 
    1.894-2.338.624-.216 1.315-.119 1.735.132.432.258.729.667.867 1.246.148.615.039 1.351-.08 1.891-.267 1.219-.618 2.134-.937 
    3.31-.158.583-.337 1.182-.189 1.812.136.578.437.976.847 1.275.426.31.93.479 1.625.455 1.228-.043 2.081-.828 
    2.651-1.568.913-1.185 1.465-2.784 1.675-4.686.067-.614.117-1.319.07-2.015-.088-1.283-.489-2.316-1.127-3.116-.606-.763-1.466-1.369-2.512-1.711-1.037-.338-2.472-.451-3.747-.233-2.318.397-3.952 
    1.714-4.915 3.533a7.082 7.082 0 0 0-.837 3.41c0 1.051.259 1.865.678 2.5.133.201.328.367.458.597.185.326-.028.811-.119 
    1.164-.11.425-.122 1.012-.618 1.022-.206.004-.464-.146-.638-.243-1.305-.721-2.097-2.033-2.422-3.734a8.921 8.921 0 0 1 0-3.238 
    9.232 9.232 0 0 1 4.396-6.144C6.559 1.023 7.818.56 9.35.337a16.62 16.62 0 0 1 1.605-.132 9.65 9.65 0 0 1 4.326.81 8.839 8.839 0 
    0 1 2.98 2.146c.838.915 1.448 1.979 1.834 3.309.202.692.398 1.432.398 2.287 0 .858-.181 1.613-.308 2.368-.474 2.828-1.819 
    5.141-3.838 6.458a6.643 6.643 0 0 1-1.754.809c-.667.194-1.428.34-2.243.283a4.586 4.586 0 0 
    1-1.983-.577c-.54-.305-.994-.679-1.316-1.244z"></path>
</symbol>
<symbol viewbox="0 0 26 26" id="instagram_icon">
        <path fill-rule="evenodd" d="M22.7 25.8H3.5a3.2 3.2 0 0 1-3.2-3.201V3.4A3.2 3.2 0 0 1 3.5.199h19.2A3.2 3.2 0 
        0 1 25.9 3.4v19.199a3.2 3.2 0 0 1-3.2 3.201zM13.1 8.039a4.957 4.957 0 0 0-4.498 2.88h-.005l-.022.055a5.23 5.23 0 0 0-.128.321c-.019.053-.04.104-.057.156a4.386 
        4.386 0 0 0-.095.34c-.014.053-.03.106-.042.16a4.952 4.952 0 0 0-.061.368c-.007.05-.017.099-.023.15a4.96 4.96 0 1 0 9.862 
        0c-.006-.051-.016-.1-.023-.15a4.952 4.952 0 0 0-.061-.368c-.012-.054-.028-.107-.042-.16a4.386 4.386 0 0 0-.095-.34c-.017-.052-.038-.103-.057-.156a5.23 
        5.23 0 0 0-.128-.321l-.022-.055h-.005a4.957 4.957 0 0 0-4.498-2.88zm9.92-3.68a1.28 1.28 0 0 0-1.28-1.279h-2.56a1.28 1.28 0 0 0-1.28 
        1.279V6.92c0 .707.573 1.28 1.28 1.28h2.56a1.28 1.28 0 0 0 1.28-1.28V4.359zm0 6.56h-2.36a7.839 7.839 0 0 1-7.56 9.92 7.839 7.839 0 
        0 1-7.56-9.92H3.18v10.72a1.28 1.28 0 0 0 1.28 1.281h17.28a1.28 1.28 0 0 0 1.28-1.281v-10.72z"></path>
</symbol>
</svg>